<?xml version="1.0" ?><svg height="1000px" version="1.1" viewBox="0 0 1000 1000" width="1000px" xmlns="http://www.w3.org/2000/svg" xmlns:sketch="http://www.bohemiancoding.com/sketch/ns" xmlns:xlink="http://www.w3.org/1999/xlink"><title/><desc/><defs/><g fill="none" fill-rule="evenodd" id="Page-1" stroke="none" stroke-width="1"><g id="Shadow" transform="translate(-6095.000000, 0.000000)"><g id="أ" transform="translate(6145.000000, 50.000000)"><circle cx="450" cy="450" fill="#F15D43" id="Oval-1" r="450"/><path d="M475.427871,208.076348 C475.427871,208.076348 407.114605,227.89583 391.637957,253.442693 C376.161308,278.989556 409.362712,296.081246 408.705845,318.212495 C408.330426,330.861154 388.541098,357.782416 388.541098,357.782416 L484.437828,436.266446 C484.437828,436.266446 445.228264,769.800134 439.923721,769.800134 L573.754748,873.427117 C729.946901,876.559625 891.004427,639.377252 891.004427,529.326409 C891.004427,529.326409 475.427871,208.076348 475.427871,208.076348 Z" fill="#000000" id="Rectangle-1" opacity="0.165228545"/><g fill="#FFFFFF" transform="translate(375.000000, 205.000000)"><path d="M65,200.609756 L65,565 L118.06344,514.29145 L118.06344,149.901206 L65,200.609756 Z" id="Rectangle-3"/><path d="M65.8399404,112.291947 C80.920803,103.285714 117.858878,90.650365 117.858878,90.650365 L127.786545,58.5709861 C127.786545,58.5709861 39.7390903,96.3142402 20.0601575,69.0818854 C9.43345406,54.3763035 30.9659396,39.0957543 53.3648027,33.8336618 C72.4450046,29.3512116 92.2554464,33.8336627 92.2554464,33.8336627 L101.528371,2.90326785 C101.528371,2.90326785 62.8840477,-15.216669 16.2047834,33.8336621 C-30.4744809,82.8839932 26.237337,112.291947 26.237337,112.291947 C26.237337,112.291947 18.6124039,115.904179 16.2047828,129.90017 C13.7971617,143.896161 13.7971617,152.79562 13.7971617,152.79562 C13.7971617,152.79562 46.2335642,124.000799 65.8399404,112.291947 Z" id="Path-1"/></g></g></g></g></svg>